Coordinates
version=1
nRows=16
nColumns=42
inDegrees=yes

Units are S.I. units (second, meters, Newtons, ...)
If the header above contains a line with 'inDegrees', this indicates whether rotational values are in degrees (yes) or radians (no).

endheader
time	pelvis_tilt	pelvis_list	pelvis_rotation	pelvis_tx	pelvis_ty	pelvis_tz	hip_flexion_r	hip_adduction_r	hip_rotation_r	knee_angle_r	knee_adduction_r	knee_angle_r_beta	ankle_angle_r	subtalar_angle_r	mtp_angle_r	hip_flexion_l	hip_adduction_l	hip_rotation_l	knee_angle_l	knee_adduction_l	knee_angle_l_beta	ankle_angle_l	subtalar_angle_l	mtp_angle_l	lumbar_extension	lumbar_bending	lumbar_rotation	arm_flex_r	arm_add_r	arm_rot_r	elbow_flex_r	pro_sup_r	wrist_flex_r	wrist_dev_r	arm_flex_l	arm_add_l	arm_rot_l	elbow_flex_l	pro_sup_l	wrist_flex_l	wrist_dev_l
      0.74000000	      1.13755182	     -1.50844797	      1.51740719	     -0.00254002	      0.98420890	     -0.24408884	     19.26351761	      0.39087682	     -5.53435862	     47.24968615	      0.96408133	      0.82466259	      1.84067655	    -13.60769468	     -7.64304571	     -3.47224124	     -0.01552581	      1.99690277	      7.88217805	      1.31756707	      0.13756996	      7.77915966	      0.24710413	     -7.64304571	    -12.11751374	     -1.11234507	      0.74059567	    -13.52460228	    -11.29607036	      3.51457258	     38.96558787	     90.00000001	      0.00000000	      0.00000000	      0.54202128	    -14.24506067	     10.22421144	     36.07194610	     90.00000001	      0.00000000	      0.00000000
      0.75000000	      1.36060553	     -1.74616506	      1.79965802	      0.01132367	      0.98349372	     -0.24462181	     19.67757262	      0.55571009	     -5.65849848	     44.47405976	      1.20959735	      0.77621877	      1.90382382	    -13.46004268	     -7.63641162	     -4.90098315	     -0.32429151	      2.35911068	      7.28815788	      1.37009190	      0.12720235	      8.18292271	      0.14815224	     -7.63641162	    -12.32787083	     -0.68967134	      0.61092973	    -14.05954834	    -11.36085818	      2.99918192	     38.97653329	     90.00000001	      0.00000000	      0.00000000	      1.38795412	    -14.58813923	     11.92452775	     37.21218055	     90.00000001	      0.00000000	      0.00000000
      0.76000000	      1.39180614	     -1.86913670	      2.05689569	      0.02508688	      0.98215451	     -0.24509585	     20.26717317	      0.57185319	     -5.81526206	     41.61567439	      1.40753917	      0.72633054	      2.04797685	    -13.02221889	     -7.62982521	     -6.04326901	     -0.48962793	      2.67756099	      6.83957945	      1.38279967	      0.11937318	      8.68608954	      0.10339786	     -7.62982521	    -12.33350712	     -0.41198754	      0.48146910	    -14.57326580	    -11.38274907	      2.56649246	     38.91482768	     90.00000001	      0.00000000	      0.00000000	      2.25295523	    -14.84480204	     13.14084343	     38.33196755	     90.00000001	      0.00000000	      0.00000000
      0.77000000	      1.16089274	     -1.83335636	      2.21414116	      0.03860572	      0.98015529	     -0.24566511	     21.10870352	      0.39760146	     -5.88347764	     38.66416537	      1.59086880	      0.67481699	      2.44868673	    -12.31601205	     -7.62657366	     -6.80394526	     -0.45574286	      2.91851857	      6.59111569	      1.41356011	      0.11503667	      9.39820655	      0.17907617	     -7.62657366	    -12.07722307	     -0.29251157	      0.31437598	    -14.94791536	    -11.44118774	      2.22432038	     38.74462129	     90.00000001	      0.00000000	      0.00000000	      3.03302090	    -14.98729269	     13.97810323	     39.44479885	     90.00000001	      0.00000000	      0.00000000
      0.78000000	      1.36415481	     -1.98377245	      2.40476226	      0.05245393	      0.97849296	     -0.24586566	     21.29621836	      0.54393266	     -6.40742663	     35.33471429	      1.40627909	      0.61670710	      2.55108679	    -11.40833034	     -7.62075804	     -8.09410172	     -0.67774480	      3.13853359	      6.24421962	      1.45006842	      0.10898219	      9.93284201	      0.08000173	     -7.62075804	    -12.28737203	      0.00867540	      0.27862027	    -15.33515938	    -11.41369217	      1.63586123	     38.65821478	     90.00000001	      0.00000000	      0.00000000	      3.99442187	    -15.32508317	     15.49230979	     40.50625334	     90.00000001	      0.00000000	      0.00000000
      0.79000000	      0.93121080	     -1.59926114	      2.35705896	      0.06582173	      0.97566567	     -0.24630048	     22.34445821	      0.09230273	     -6.72737825	     32.34341110	      1.20505547	      0.56449901	      2.63206678	    -10.58632324	     -7.61927839	     -8.53311308	     -0.13042903	      3.00255889	      6.24293439	      1.28543877	      0.10895976	     10.50957354	      0.04350136	     -7.61927839	    -11.84980958	     -0.28264726	      0.20491807	    -15.65522744	    -11.50477453	      1.50553986	     38.55704361	     90.00000001	      0.00000000	      0.00000000	      4.81706430	    -15.33538983	     15.76954856	     41.35373665	     90.00000001	      0.00000000	      0.00000000
      0.80000000	      1.26691565	     -1.93823970	      2.57806589	      0.07978475	      0.97377733	     -0.24618018	     22.05826651	      0.47334573	     -7.28117754	     28.47918117	      1.05435108	      0.49705548	      3.03691189	     -8.70127326	     -7.61411787	     -9.95660095	     -0.68623310	      3.30219550	      5.91192179	      1.54459109	      0.10318250	     11.18634900	     -0.06058368	     -7.61411787	    -12.21151885	      0.21182165	      0.20998954	    -15.84003729	    -11.36037033	      0.70639823	     38.18149484	     90.00000001	      0.00000000	      0.00000000	      5.82066159	    -15.77502847	     17.62192720	     42.47903062	     90.00000001	      0.00000000	      0.00000000
      0.81000000	      1.22624000	     -1.84390686	      2.62557142	      0.09355939	      0.97114034	     -0.24623536	     22.29878809	      0.38501207	     -7.87212843	     24.94937984	      0.82381305	      0.43544882	      3.24496438	     -6.81135535	     -7.60876788	    -10.90923932	     -0.61445745	      3.33760485	      5.75613052	      1.60052019	      0.10046343	     11.73654584	     -0.19674558	     -7.60876788	    -12.18902161	      0.23060388	      0.18879889	    -16.03560407	    -11.31066501	      0.29564752	     37.91944879	     90.00000001	      0.00000000	      0.00000000	      6.72676365	    -15.93998587	     18.46630818	     43.37138730	     90.00000001	      0.00000000	      0.00000000
      0.82000000	      1.13924887	     -1.69405440	      2.63205687	      0.10736391	      0.96829403	     -0.24617439	     22.51705696	      0.26361366	     -8.42857482	     21.44145826	      0.62947538	      0.37422404	      3.39223999	     -4.83745974	     -7.60377452	    -11.79178598	     -0.47355499	      3.26125019	      5.65789451	      1.65358768	      0.09874889	     12.27800229	     -0.28004878	     -7.60377452	    -12.12680208	      0.17668821	      0.18693408	    -16.16367805	    -11.23568780	     -0.12865514	     37.58517645	     90.00000001	      0.00000000	      0.00000000	      7.63000610	    -16.11364487	     19.27170601	     44.20417789	     90.00000001	      0.00000000	      0.00000000
      0.83000000	      0.73525701	     -1.29477614	      2.57984280	      0.12096420	      0.96493876	     -0.24629061	     23.05434114	     -0.17591924	     -8.67294106	     18.12467635	      0.65116549	      0.31633528	      3.35528082	     -3.16388965	     -7.60157664	    -12.24717524	     -0.00510750	      3.13961228	      5.74078873	      1.68272968	      0.10019566	     12.82990871	     -0.29410016	     -7.60157664	    -11.74320798	     -0.14318789	      0.13831561	    -16.23618472	    -11.20598136	     -0.35959509	     37.17782457	     90.00000001	      0.00000000	      0.00000000	      8.44639191	    -16.18112876	     19.70267270	     44.95255475	     90.00000001	      0.00000000	      0.00000000
      0.84000000	      0.88066315	     -1.26016970	      2.60579863	      0.13519865	      0.96222070	     -0.24600001	     22.84644358	     -0.12259164	     -9.43397772	     14.85004785	      0.47850850	      0.25918223	      3.38848657	     -1.08563593	     -7.59710298	    -13.42963550	     -0.04022231	      2.88712523	      5.58880048	      1.75417736	      0.09754297	     13.29412883	     -0.20965158	     -7.59710298	    -11.92018761	     -0.07172648	      0.15705519	    -16.28385551	    -11.06212618	     -0.94070345	     36.79973279	     90.00000001	      0.00000000	      0.00000000	      9.33834445	    -16.34985635	     20.50238380	     45.66835648	     90.00000001	      0.00000000	      0.00000000
      0.85000000	      0.48904393	     -0.84411556	      2.56024299	      0.14897959	      0.95880623	     -0.24605289	     23.32530361	     -0.57409918	     -9.74560016	     12.14406331	      0.57040216	      0.21195389	      3.19497226	      0.45923115	     -7.59521723	    -13.89617114	      0.43728905	      2.78896276	      5.71644286	      1.76402996	      0.09977075	     13.71729687	     -0.12135566	     -7.59521723	    -11.57264217	     -0.39349595	      0.08897230	    -16.28784002	    -11.00176556	     -1.13701221	     36.39317697	     90.00000001	      0.00000000	      0.00000000	     10.09635814	    -16.35668346	     20.73087075	     46.28377435	     90.00000001	      0.00000000	      0.00000000
      0.86000000	      0.60058984	     -0.79499372	      2.60450477	      0.16361584	      0.95605613	     -0.24583208	     23.14899747	     -0.56719945	    -10.65225423	      9.73743959	      0.53850739	      0.16995038	      3.18821982	      2.13343070	     -7.59127624	    -15.02490406	      0.39942510	      2.47230042	      5.64507910	      1.82723983	      0.09852522	     14.09562284	      0.06562031	     -7.59127624	    -11.67621440	     -0.30884859	      0.02874283	    -16.26838680	    -10.89994041	     -1.71811471	     35.93425054	     90.00000001	      0.00000000	      0.00000000	     10.81969018	    -16.40748290	     21.16212603	     46.84532400	     90.00000001	      0.00000000	      0.00000000
      0.87000000	      0.23153859	     -0.48025650	      2.52003689	      0.17792423	      0.95276357	     -0.24578084	     23.72029357	     -0.90755907	    -11.25203357	      8.26260992	      0.69495759	      0.14420975	      3.04649567	      2.80387656	     -7.59031554	    -15.53585533	      0.76491966	      2.24449364	      5.78001316	      1.78951280	      0.10088026	     14.36355971	      0.08466394	     -7.59031554	    -11.29610428	     -0.50936424	      0.01332982	    -16.29932082	    -10.90125216	     -1.81899932	     35.63249476	     90.00000001	      0.00000000	      0.00000000	     11.42936381	    -16.29290217	     21.16463480	     47.27368319	     90.00000001	      0.00000000	      0.00000000
      0.88000000	      0.16551386	     -0.42541570	      2.65567165	      0.19235149	      0.95014636	     -0.24550609	     23.75215564	     -0.89075167	    -11.74678354	      6.89265648	      0.65431893	      0.12029955	      2.92860795	      3.99126449	     -7.58830972	    -16.29205914	      0.67738685	      2.28564018	      6.04879352	      1.88067955	      0.10557136	     14.56568263	      0.32393424	     -7.58830972	    -11.28396814	     -0.42329395	     -0.18576340	    -16.08641580	    -10.76711211	     -2.30152475	     35.00326005	     90.00000001	      0.00000000	      0.00000000	     12.05475260	    -16.25752814	     21.15523227	     47.68117424	     90.00000001	      0.00000000	      0.00000000
      0.89000000	      0.24172846	     -0.65793690	      2.79829380	      0.20730281	      0.94782939	     -0.24521982	     23.77753913	     -0.60647320	    -12.82232971	      6.41063620	      0.57624918	      0.11188671	      2.98049344	      4.94843490	     -7.58415300	    -17.19257979	      0.25516902	      2.17182483	      6.36147623	      1.96856557	      0.11102871	     14.75159342	      0.64037707	     -7.58415300	    -11.35808838	      0.02235835	     -0.32047821	    -15.99589669	    -10.69653078	     -2.87045352	     34.59761222	     90.00000001	      0.00000000	      0.00000000	     12.55498275	    -16.08509936	     20.97636029	     48.00269256	     90.00000001	      0.00000000	      0.00000000
